max v2;#N vpatcher 78 115 678 515;#P window setfont "Sans Serif" 9.;#P window linecount 1;#P message 12 173 59 196617 timeout 10;#P message 35 131 34 196617 count;#P button 133 101 15 0;#P number 183 195 35 9 0 0 0 3 0 0 0 221 221 221 222 222 222 0 0 0;#P slider 212 44 15 128 0 2;#P message 63 91 33 196617 close;#P message 90 51 30 196617 open;#P button 91 259 15 0;#P newex 91 227 83 196617 max_trancevibe;#P connect 2 0 0 0;#P connect 3 0 0 0;#P connect 6 0 0 0;#P connect 7 0 0 0;#P connect 8 0 0 0;#P connect 0 0 1 0;#P connect 5 0 0 1;#P connect 4 0 5 0;#P pop;