#N canvas 296 287 411 280 10;
#X msg 93 30 count;
#X floatatom 92 153 5 0 255 0 - - -;
#X msg 93 56 open;
#X obj 6 202 bng 15 250 50 0 empty empty empty 0 -6 0 10 -262144 -1
-1;
#X msg 92 106 close;
#X obj 6 174 np_trancevibe;
#X msg 93 81 open 0;
#X text 3 -6 np_trancevibe tutorial;
#X text 3 7 http://www.nonpolynomial.com/libtrancevibe;
#X text 135 107 Close current device;
#X text 131 152 Set speed \, 0-255;
#X text 24 201 Bang on successful open or speed set;
#X text 134 29 prints out number of devices connected;
#X text 128 57 open first device found;
#X text 142 80 open device at index (starts at 0);
#X obj 92 133 bng 15 250 50 0 empty empty empty 17 7 0 10 -262144 -1
-1;
#X text 112 132 Updates vibrator to new speed;
#X connect 0 0 5 0;
#X connect 1 0 5 1;
#X connect 2 0 5 0;
#X connect 4 0 5 0;
#X connect 5 0 3 0;
#X connect 6 0 5 0;
#X connect 15 0 5 0;
